<svg xmlns="http://www.w3.org/2000/svg" width="30.625" height="35" viewBox="0 0 30.625 35">
  <path id="calendario" d="M.82-17.5a.823.823,0,0,0-.82.82V1.094A3.282,3.282,0,0,0,3.281,4.375H27.344a3.282,3.282,0,0,0,3.281-3.281V-16.68a.823.823,0,0,0-.82-.82Zm29.8-3.008v-2.461a3.282,3.282,0,0,0-3.281-3.281H24.063V-29.8a.823.823,0,0,0-.82-.82H20.508a.823.823,0,0,0-.82.82v3.555h-8.75V-29.8a.823.823,0,0,0-.82-.82H7.383a.823.823,0,0,0-.82.82v3.555H3.281A3.282,3.282,0,0,0,0-22.969v2.461a.823.823,0,0,0,.82.82H29.8A.823.823,0,0,0,30.625-20.508Z" transform="translate(0 30.625)" fill="#707070"/>
</svg>
