<svg xmlns="http://www.w3.org/2000/svg" width="33.906" height="33.906" viewBox="0 0 33.906 33.906">
  <path id="relogio" d="M17.5-30.078A16.95,16.95,0,0,0,.547-13.125,16.95,16.95,0,0,0,17.5,3.828,16.95,16.95,0,0,0,34.453-13.125,16.95,16.95,0,0,0,17.5-30.078Zm6.323,21.4L22.455-6.973a1.092,1.092,0,0,1-.855.411,1.091,1.091,0,0,1-.683-.24l-4.58-3.4a2.727,2.727,0,0,1-1.025-2.135V-22.969a1.094,1.094,0,0,1,1.094-1.094h2.188a1.094,1.094,0,0,1,1.094,1.094v9.844l3.965,2.905a1.092,1.092,0,0,1,.411.854A1.091,1.091,0,0,1,23.823-8.682Z" transform="translate(-0.547 30.078)" fill="#707070"/>
</svg>
