<svg id="ATOM" xmlns="http://www.w3.org/2000/svg" xmlns:xlink="http://www.w3.org/1999/xlink" width="36" height="36" viewBox="0 0 36 36">
  <defs>
    <clipPath id="clip-path">
      <rect id="Retângulo_14" data-name="Retângulo 14" width="36" height="36" fill="#707070"/>
    </clipPath>
  </defs>
  <g id="Grupo_22" data-name="Grupo 22" clip-path="url(#clip-path)">
    <path id="Caminho_52" data-name="Caminho 52" d="M78.564,94.08v1.679c-.424-.292-1.026-.416-1.034-.833-.007-.378.637-.435,1.034-.846" transform="translate(-63.369 -76.896)" fill="#707070"/>
    <path id="Caminho_53" data-name="Caminho 53" d="M51.533,103.488c.3.732-.217,1.034-.913,1.308a19.864,19.864,0,0,1-5.269,1.622c-.347.037-.8.184-1.017-.164-.225-.365.157-.678.358-.952a18.447,18.447,0,0,1,4.667-4.135.415.415,0,0,1,.4-.093,2.548,2.548,0,0,1,1.775,2.415" transform="translate(-36.179 -82.597)" fill="#707070"/>
    <path id="Caminho_54" data-name="Caminho 54" d="M49.335,71.831c-.442-.32-.866-.667-1.31-.983a.71.71,0,0,1-.332-.749c.084-.974-.458-1.417-1.463-1.286-.548.071-1.938-1.381-1.821-1.918.084-.384.422-.281.67-.281a9.7,9.7,0,0,1,3.191.67c.855.3,1.675.694,2.521,1.019.659.254,1.118.6.862,1.293a2.581,2.581,0,0,1-1.759,2.42c-.267.086-.4-.073-.559-.186" transform="translate(-36.292 -54.437)" fill="#707070"/>
    <path id="Caminho_55" data-name="Caminho 55" d="M88.552,110.127l-1.4.687c-.026-.526-.046-.953-.073-1.534.544.312.944.542,1.472.847" transform="translate(-71.175 -89.32)" fill="#707070"/>
    <path id="Caminho_56" data-name="Caminho 56" d="M86.877,81.915c-.011-.557-.23-1.163.126-1.35.312-.164.758.3,1.244.563l-1.37.787" transform="translate(-70.946 -65.822)" fill="#707070"/>
    <path id="Caminho_57" data-name="Caminho 57" d="M91.7,117.926a22.046,22.046,0,0,1-1.1,5.467,5.508,5.508,0,0,1-.457.888c-.223.362-.46.329-.687-.018a7.2,7.2,0,0,1-.778-1.836c-.108-.351.153-.473.312-.683a1.125,1.125,0,0,0-.369-1.77c-1-.555-.5-1.543-.69-2.329-.133-.559.458-.532.731-.767,1.061-.915,1.943-.17,2.862.29.292.146.248.378.177.758" transform="translate(-71.857 -95.175)" fill="#707070"/>
    <path id="Caminho_58" data-name="Caminho 58" d="M87.944,43.493a20.967,20.967,0,0,1,1.289-6.122c.124-.289.192-.725.588-.731s.5.407.625.7A26.152,26.152,0,0,1,91.814,43.6c-.015.069-.005.252-.075.29-.612.331-1.238.879-1.863.88s-1.249-.535-1.859-.868c-.079-.044-.088-.276-.073-.415" transform="translate(-71.876 -29.948)" fill="#707070"/>
    <path id="Caminho_59" data-name="Caminho 59" d="M103,79.82c.2.506.385,1.251.11,1.368-.4.172-.868-.365-1.421-.7L103,79.82" transform="translate(-83.116 -65.241)" fill="#707070"/>
    <path id="Caminho_60" data-name="Caminho 60" d="M101.33,109.849c.542-.316,1-.583,1.605-.939-.071.659-.119,1.1-.179,1.655l-1.426-.716" transform="translate(-82.822 -89.018)" fill="#707070"/>
    <path id="Caminho_61" data-name="Caminho 61" d="M91.01,87.69c.044-.5-1.54-1.889-2.122-1.733a6.644,6.644,0,0,0-1.9,1.021c-.453.307-.108.853-.228,1.28.146.457-.2,1.054.219,1.379.568.438,1.255,1.023,1.879,1.008a3.464,3.464,0,0,0,1.951-1.05c.524-.479.146-1.26.2-1.905m-.769.65a1.433,1.433,0,0,1-1.459,1.322,1.416,1.416,0,1,1,.093-2.831,1.43,1.43,0,0,1,1.366,1.509" transform="translate(-70.901 -70.247)" fill="#707070"/>
    <path id="Caminho_62" data-name="Caminho 62" d="M113.26,96.732V95.19c1.16.557,1.16.557,0,1.542" transform="translate(-92.573 -77.804)" fill="#707070"/>
    <path id="Caminho_63" data-name="Caminho 63" d="M118.8,68.3a30.142,30.142,0,0,1-4.117,3.565.574.574,0,0,1-.8.02c-.776-.574-1.907-.888-1.485-2.2-.323-.831.126-1.118.776-1.346.7-.245,1.3-.679,2.119-.206.431.247.915-.13,1.2-.579a3.58,3.58,0,0,1,2.9-.893c.329.15.258.391.133.6A6.2,6.2,0,0,1,118.8,68.3" transform="translate(-91.782 -54.43)" fill="#707070"/>
    <path id="Caminho_64" data-name="Caminho 64" d="M115.344,102.541a23.888,23.888,0,0,1,3.808,3.631c.174.239.442.5.3.809-.157.345-.537.157-.877.225a23.676,23.676,0,0,1-6.075-1.962.58.58,0,0,1-.27-.221,3.443,3.443,0,0,1,.729-2.584c.866-.782,1.547-.637,2.385.1" transform="translate(-91.67 -83.301)" fill="#707070"/>
    <path id="Caminho_65" data-name="Caminho 65" d="M18,0A18,18,0,1,0,36,18,18,18,0,0,0,18,0m9.09,21.474a6.533,6.533,0,0,1,1.05,1.37c.542,1.016.221,1.562-.919,1.6a9.313,9.313,0,0,1-3.374-.69c-1.112-.389-2.2-.844-3.355-1.293a35.7,35.7,0,0,1-.886,5.012,7.016,7.016,0,0,1-.754,1.85c-.588.926-1.205.932-1.8-.009a6.189,6.189,0,0,1-.528-1.156c-.214-.579-.314-1.153-.99-1.5a.915.915,0,0,1-.214-1.437c.754-.862.139-1.73.1-2.579-.016-.427-.395-.069-.553,0a23.316,23.316,0,0,1-5,1.671,6.156,6.156,0,0,1-1.268.1c-1.079-.031-1.421-.614-.875-1.563a13.34,13.34,0,0,1,3.412-3.507c.539-.438,1.112-.837,1.786-1.341-1-.488-1.518-1.6-2.833-1.432a.872.872,0,0,1-.908-.953C9.237,15,8.88,14.7,8.564,14.3c-.508-.65-1.4-1.322-.922-2.2s1.518-.491,2.336-.351a18.622,18.622,0,0,1,4.727,1.607c.619.29.8.226.853-.482A18.321,18.321,0,0,1,16.67,7.538c.248-.637.479-1.461,1.317-1.443.774.018,1,.805,1.247,1.419a18.857,18.857,0,0,1,1.127,5.328c.062.663.19.928.9.513C21.879,13,22.513,12.84,22.78,12a.924.924,0,0,1,1.529-.332,1.228,1.228,0,0,0,1.247.181,5.613,5.613,0,0,1,1.8-.217c.99.084,1.282.584.875,1.481a5.546,5.546,0,0,1-1.079,1.456A27.344,27.344,0,0,1,23,18.037a30.032,30.032,0,0,1,4.093,3.437" fill="#707070"/>
  </g>
</svg>
