<svg xmlns="http://www.w3.org/2000/svg" width="25.735" height="35" viewBox="0 0 25.735 35">
  <path id="BTC" d="M21.205-14.038A5.126,5.126,0,0,0,24.027-19.6c-.366-3.92-3.586-5.234-7.851-5.6v-5.428H12.859v5.278c-.862,0-1.745.021-2.628.043v-5.321H6.913V-25.2c-1.22.037-2.64.019-6.656,0v3.533c2.619-.046,3.993-.215,4.308,1.465V-5.336C4.366-4,3.3-4.2.925-4.237L.257-.3c6.049,0,6.656.022,6.656.022V4.375h3.317V-.209c.9.021,1.788.021,2.628.021V4.375h3.317V-.274c5.558-.3,9.273-1.7,9.768-6.936C26.332-11.41,24.35-13.285,21.205-14.038ZM10.3-21.427c1.874,0,7.733-.582,7.733,3.317,0,3.727-5.859,3.3-7.733,3.3Zm0,17.211V-11.5c2.24,0,9.1-.625,9.1,3.64C19.4-3.742,12.536-4.216,10.3-4.216Z" transform="translate(-0.257 30.625)" fill="#707070"/>
</svg>
