<svg id="DACXI" xmlns="http://www.w3.org/2000/svg" xmlns:xlink="http://www.w3.org/1999/xlink" width="35.022" height="35" viewBox="0 0 35.022 35">
  <defs>
    <clipPath id="clip-path">
      <rect id="Retângulo_12" data-name="Retângulo 12" width="35.022" height="35" fill="#707070"/>
    </clipPath>
  </defs>
  <g id="Grupo_18" data-name="Grupo 18" clip-path="url(#clip-path)">
    <path id="Caminho_49" data-name="Caminho 49" d="M17.5,35A17.5,17.5,0,1,1,35.022,17.586,17.447,17.447,0,0,1,17.5,35m-.164-13.069c1.587.923,3.092,1.8,4.593,2.676a.422.422,0,0,0,.464-.019,2.527,2.527,0,0,0,1.474-2.454c-.019-4.246-.035-8.493-.007-12.739a1.622,1.622,0,0,0-.93-1.623c-1.664-.927-1.421-.9-3.061.005a1.63,1.63,0,0,0-.933,1.629c.035,3.586.014,7.173.042,10.759a1.173,1.173,0,0,1-.738,1.242,9.834,9.834,0,0,0-.9.523M10.371,19.2a30.083,30.083,0,0,0,.092,3.785,2.093,2.093,0,0,0,1.11,1.446q2.171,1.26,4.348,2.509a2.14,2.14,0,0,0,1.954.187,33.589,33.589,0,0,0,3.135-1.748L10.371,19.2m7.394-1.144c0-1.855,0-3.577,0-5.3,0-.257-.156-.3-.361-.317a2.48,2.48,0,0,0-1.513.308q-2.126,1.233-4.255,2.459a2.4,2.4,0,0,0-1.268,2.263.649.649,0,0,0,.374.64c1.031.579,2.049,1.18,3.072,1.773l1.125.652c.251-.748-.341-1.685.642-2.132.663-.3,1.223-1.116,2.183-.347" transform="translate(0 0)" fill="#707070"/>
  </g>
</svg>
