<svg id="ETH" xmlns="http://www.w3.org/2000/svg" xmlns:xlink="http://www.w3.org/1999/xlink" width="28.185" height="46" viewBox="0 0 28.185 46">
  <defs>
    <clipPath id="clip-path">
      <rect id="Retângulo_13" data-name="Retângulo 13" width="28.185" height="46" fill="#707070"/>
    </clipPath>
  </defs>
  <g id="Grupo_20" data-name="Grupo 20" clip-path="url(#clip-path)">
    <path id="Caminho_50" data-name="Caminho 50" d="M14.178,0q6.929,11.493,13.839,22.939c.235.389.267.557-.195.827q-6.595,3.852-13.147,7.777a1.027,1.027,0,0,1-1.207-.03Q6.95,27.632.416,23.777c-.345-.2-.579-.314-.277-.81Q7.081,11.526,13.979.059c.012-.02.06-.019.2-.059" transform="translate(0)" fill="#707070"/>
    <path id="Caminho_51" data-name="Caminho 51" d="M.352,129.207c.5-.156.767.193,1.068.369,4.011,2.35,8.02,4.7,12.005,7.093a1.225,1.225,0,0,0,1.47-.009c4.023-2.4,8.064-4.763,12.1-7.135.279-.164.515-.475.992-.3-1.773,2.5-3.526,4.973-5.282,7.445q-4.046,5.695-8.088,11.392c-.3.427-.449.728-.9.088Q7.157,138.829.547,129.537c-.068-.1-.121-.2-.2-.33" transform="translate(-0.279 -102.521)" fill="#707070"/>
  </g>
</svg>
