<svg xmlns="http://www.w3.org/2000/svg" xmlns:xlink="http://www.w3.org/1999/xlink" width="39" height="39" viewBox="0 0 39 39">
  <defs>
    <clipPath id="clip-path">
      <rect id="Retângulo_15" data-name="Retângulo 15" width="39" height="39" transform="translate(0)" fill="#707070"/>
    </clipPath>
  </defs>
  <g id="LUNA" transform="translate(0)">
    <g id="Grupo_24" data-name="Grupo 24" clip-path="url(#clip-path)">
      <g id="Grupo_26" data-name="Grupo 26">
        <path id="Caminho_66" data-name="Caminho 66" d="M19.5,0A19.5,19.5,0,1,0,39,19.5,19.5,19.5,0,0,0,19.5,0M14.345,9.864c.094-.7.715-.978,1.279-1.178a10.915,10.915,0,0,1,8.3.313,11.349,11.349,0,0,1,6.223,6.688,3.861,3.861,0,0,1,.313,1.52,26.009,26.009,0,0,0-5.423-2.088c-2.28-.922-4.689-1.473-6.955-2.432a15.92,15.92,0,0,1-2.72-1.34c-.536-.358-1.122-.727-1.02-1.483m5.194,21.141a11.527,11.527,0,0,1-11.089-8.1,11.1,11.1,0,0,1,3.391-11.875A14.247,14.247,0,0,0,18.22,21.346C21.926,23.772,25.956,24.08,30.265,23a11.408,11.408,0,0,1-10.725,8.005" fill="#707070"/>
        <path id="Caminho_67" data-name="Caminho 67" d="M149.057,91.959c0,.425-.264.388-.526.206-2.145-1.494-4.3-2.982-5.2-5.626a26.009,26.009,0,0,1,5.423,2.088,7.455,7.455,0,0,1,.3,3.332" transform="translate(-118.289 -71.421)" fill="#202020"/>
      </g>
    </g>
  </g>
</svg>
